<svg width="93" height="93" viewBox="0 0 93 93" fill="none" xmlns="http://www.w3.org/2000/svg">
    <g clip-path="url(#clip0)">
    <path d="M85.1023 63.4216C85.1023 68.7619 83.6056 73.0849 81.7746 73.0849C79.9364 73.0849 78.447 68.7619 78.447 63.4216C78.447 58.0814 79.9364 53.7511 81.7746 53.7511C83.6056 53.7511 85.1023 58.0887 85.1023 63.4216Z" fill="#2F2F2F"/>
    <path d="M80.3288 72.1331C80.3288 72.1331 81.2152 73.5499 82.1743 74.0295C84.3467 75.112 87.3692 74.7124 89.1856 72.2421L88.212 66.357L82.0653 67.5267L80.3288 72.1331Z" fill="#2F2F2F"/>
    <path d="M17.2268 75.6642C17.2268 81.3677 15.2143 85.9959 12.7439 85.9959C10.2664 85.9959 8.25378 81.3677 8.25378 75.6642C8.25378 69.9534 10.2664 65.3252 12.7439 65.3252C15.2143 65.3325 17.2268 69.9534 17.2268 75.6642Z" fill="#2F2F2F"/>
    <path d="M10.7895 84.986C10.7895 84.986 11.9811 86.5045 13.2889 87.0131C16.2169 88.1684 20.2857 87.7397 22.7342 85.1095L21.4191 78.8175L13.1363 80.0672L10.7895 84.986Z" fill="#2F2F2F"/>
    <path d="M25.3934 75.6642C25.3934 81.3677 23.3808 85.9959 20.9105 85.9959C18.4329 85.9959 16.4203 81.3677 16.4203 75.6642C16.4203 69.9534 18.4329 65.3252 20.9105 65.3252C23.3808 65.3325 25.3934 69.9534 25.3934 75.6642Z" fill="#2F2F2F"/>
    <path d="M65.9573 75.6642C65.9573 81.3677 63.9447 85.9959 61.4744 85.9959C58.9968 85.9959 56.9843 81.3677 56.9843 75.6642C56.9843 69.9534 58.9968 65.3252 61.4744 65.3252C63.9447 65.3325 65.9573 69.9534 65.9573 75.6642Z" fill="#2F2F2F"/>
    <path d="M59.52 84.986C59.52 84.986 60.7115 86.5045 62.0193 87.0131C64.9474 88.1684 69.0161 87.7397 71.4719 85.1095L70.1568 78.8175L61.874 80.0672L59.52 84.986Z" fill="#2F2F2F"/>
    <path d="M82.8281 8.87133H12.5768C5.2894 8.87133 0.116272 13.3252 0.116272 19.8788V66.6258C0.116272 73.9059 6.02322 79.8129 13.3034 79.8129H53.7511C64.3735 79.8129 67.8464 78.4397 74.3419 74.1602C81.019 69.7645 93 62.4989 93 56.5411V19.8134C93 12.5332 90.1083 8.87133 82.8281 8.87133Z" fill="#FCC21B"/>
    <path d="M-0.276123 59.629H62.448V81.0117H-0.276123V59.629Z" fill="#ED6C30"/>
    <path d="M62.4481 85.4365L95.4122 63.8939V39.852L62.4481 59.629V85.4365Z" fill="#ED6C30"/>
    <path d="M58.205 48.8468C58.205 51.288 56.2215 53.2788 53.7729 53.2788H11.1964C8.75512 53.2788 6.77161 51.288 6.77161 48.8468V20.6998C6.77161 18.2585 8.75512 16.2677 11.1964 16.2677H53.7657C56.2142 16.2677 58.1977 18.2585 58.1977 20.6998V48.8468H58.205Z" fill="#40C0E7"/>
    <path d="M4.80261 14.5603H60.7479V27.5512H4.80261V14.5603Z" fill="#2F2F2F"/>
    <path d="M14.7057 18.8616H50.8376V24.7467H14.7057V18.8616Z" fill="white"/>
    <path d="M78.7739 35.5798C78.7739 37.4688 77.6695 39.6195 76.2236 40.4405L70.8398 43.4993C68.849 44.6182 67.1125 43.6228 67.1125 41.1743V21.252C67.1125 18.8107 68.8563 16.8272 70.8398 16.8272H76.2236C77.6695 16.8272 78.7739 18.3602 78.7739 20.2348V35.5798ZM87.4345 19.4573C87.4345 18.026 86.9041 16.8635 86.2211 16.8635H83.7944C82.9516 16.8635 82.225 18.2512 82.225 19.9514V33.7997C82.225 35.4998 82.9516 36.4444 83.7944 35.914L86.2211 34.4318C86.9041 34.0104 87.4345 32.5282 87.4345 31.0969V19.4573Z" fill="#40C0E7"/>
    <path d="M11.6831 73.252C14.4399 73.252 16.6746 71.0205 16.6746 68.2678C16.6746 65.5151 14.4399 63.2836 11.6831 63.2836C8.92641 63.2836 6.69165 65.5151 6.69165 68.2678C6.69165 71.0205 8.92641 73.252 11.6831 73.252Z" fill="white"/>
    <path d="M57.4928 68.2678C57.4928 71.0215 55.255 73.252 52.4941 73.252C49.7477 73.252 47.5099 71.0215 47.5099 68.2678C47.5099 65.5069 49.7404 63.2836 52.4941 63.2836C55.255 63.2836 57.4928 65.5069 57.4928 68.2678Z" fill="white"/>
    <path d="M74.1239 75.6642C74.1239 81.3677 72.1113 85.9959 69.641 85.9959C67.1634 85.9959 65.1508 81.3677 65.1508 75.6642C65.1508 69.9534 67.1634 65.3252 69.641 65.3252C72.1113 65.3325 74.1239 69.9534 74.1239 75.6642Z" fill="#2F2F2F"/>
    <path d="M91.1545 63.4216C91.1545 68.7619 89.6651 73.0849 87.8269 73.0849C85.9887 73.0849 84.4992 68.7619 84.4992 63.4216C84.4992 58.0814 85.9887 53.7511 87.8269 53.7511C89.6723 53.7511 91.1545 58.0887 91.1545 63.4216Z" fill="#2F2F2F"/>
    </g>
    <defs>
    <clipPath id="clip0">
    <rect width="93" height="93" fill="white"/>
    </clipPath>
    </defs>
</svg>
