<svg width="61" height="61" viewBox="0 0 61 61" fill="none" xmlns="http://www.w3.org/2000/svg">
<g clip-path="url(#clip0)">
<rect width="59.7766" height="59.7766" transform="translate(0.756348 0.588829)" fill="url(#paint0_linear)"/>
<path d="M51.66 30.4772C51.8468 32.532 50.4457 34.2132 48.4843 34.2132H12.8051C10.8437 34.2132 9.44269 32.532 9.62949 30.4772L11.5909 9.74213C11.7777 7.68731 13.5523 6.00609 15.5138 6.00609H45.7757C47.7371 6.00609 49.5117 7.68731 49.6985 9.74213L51.66 30.4772Z" fill="#B4D7EE"/>
<path d="M9.06909 29.0761H14.6732V36.5482H9.06909V29.0761Z" fill="#3E4347"/>
<path d="M46.6162 29.0761H52.2203V36.5482H46.6162V29.0761Z" fill="#3E4347"/>
<path d="M14.3931 48.1299H19.9971V57.5634H14.3931V48.1299Z" fill="#3E4347"/>
<path d="M41.2925 48.1299H46.8965V57.5634H41.2925V48.1299Z" fill="#3E4347"/>
<path d="M39.4245 23.9391C39.1443 26.3675 37.1829 28.4223 35.2215 28.4223H26.0682C24.0133 28.4223 22.1453 26.4609 21.8651 23.9391L20.1839 10.3025C19.9037 7.8741 21.3047 5.81928 23.2661 5.81928H37.9301C39.9849 5.81928 41.3859 7.8741 41.0123 10.3025L39.4245 23.9391Z" fill="#428BC1"/>
<path d="M22.2385 55.602C22.0517 55.135 21.4913 54.668 21.0243 54.668H13.5523C12.9918 54.668 12.5248 55.0416 12.338 55.602L10.937 59.4315C10.7502 59.8985 11.0304 60.3655 11.5908 60.3655H22.799C23.3594 60.3655 23.6396 59.9919 23.4528 59.4315L22.2385 55.602Z" fill="#94989B"/>
<path d="M50.3522 59.4315L49.0446 55.602C48.8578 55.135 48.2974 54.668 47.8304 54.668H40.3583C39.7979 54.668 39.3309 55.0416 39.1441 55.602L37.8364 59.4315C37.6496 59.8985 37.9298 60.3655 38.4902 60.3655H49.6984C50.1654 60.3655 50.4456 59.9919 50.3522 59.4315Z" fill="#94989B"/>
<path d="M43.9076 6.19289C43.9076 8.24771 42.3198 9.92893 40.3584 9.92893H20.8376C18.8761 9.92893 17.2883 8.24771 17.2883 6.19289V4.32487C17.2883 2.27005 18.8761 0.588829 20.8376 0.588829H40.3584C42.3198 0.588829 43.9076 2.27005 43.9076 4.32487V6.19289Z" fill="#29ABE2"/>
<path d="M15.2336 27.8619L14.9534 25.9005C14.7666 24.8731 13.9259 24.0325 12.9919 24.0325H10.4701C9.5361 24.0325 8.69549 24.8731 8.50869 25.9005L8.22848 27.8619C8.04168 28.8893 8.69549 29.7299 9.6295 29.7299H13.8325C14.7666 29.7299 15.4204 28.8893 15.2336 27.8619Z" fill="#29ABE2"/>
<path d="M52.8742 27.8619L52.594 25.9005C52.4072 24.8731 51.5666 24.0325 50.6326 24.0325H48.1107C47.1767 24.0325 46.3361 24.8731 46.1493 25.9005L45.8691 27.8619C45.6823 28.8893 46.3361 29.7299 47.2701 29.7299H51.4732C52.4072 29.7299 52.9676 28.8893 52.8742 27.8619Z" fill="#29ABE2"/>
<path d="M48.8579 34.2132H12.4315C9.53604 34.2132 7.76142 37.0152 8.32183 40.4711L8.69543 42.8995C9.25584 46.3553 12.1513 49.1574 14.9533 49.1574H46.1492C49.0447 49.1574 51.8467 46.3553 52.4071 42.8995L52.8741 40.4711C53.5279 37.1086 51.6599 34.2132 48.8579 34.2132Z" fill="#29ABE2"/>
</g>
<defs>
<linearGradient id="paint0_linear" x1="29.8883" y1="0" x2="29.8883" y2="59.7766" gradientUnits="userSpaceOnUse">
<stop stop-color="white"/>
<stop offset="1" stop-color="white" stop-opacity="0"/>
</linearGradient>
<clipPath id="clip0">
<rect width="59.7766" height="59.7766" fill="white" transform="translate(0.756348 0.588829)"/>
</clipPath>
</defs>
</svg>
