<svg width="61" height="60" viewBox="0 0 61 60" fill="none" xmlns="http://www.w3.org/2000/svg">
    <g clip-path="url(#clip0)">
    <rect width="59.7766" height="59.7766" transform="translate(0.756348)" fill="currentColor"/>
    <rect width="59.7766" height="59.7766" transform="translate(0.756348)" fill="url(#paint0_linear)"/>
    <path d="M51.66 29.8883C51.8468 31.9431 50.4457 33.6244 48.4843 33.6244H12.8051C10.8437 33.6244 9.44269 31.9431 9.62949 29.8883L11.5909 9.1533C11.7777 7.09848 13.5523 5.41726 15.5138 5.41726H45.7757C47.7371 5.41726 49.5117 7.09848 49.6985 9.1533L51.66 29.8883Z" fill="#B4D7EE"/>
    <path d="M9.06909 28.4873H14.6732V35.9594H9.06909V28.4873Z" fill="#3E4347"/>
    <path d="M46.6162 28.4873H52.2203V35.9594H46.6162V28.4873Z" fill="#3E4347"/>
    <path d="M14.3931 47.5411H19.9971V56.9746H14.3931V47.5411Z" fill="#3E4347"/>
    <path d="M41.2925 47.5411H46.8965V56.9746H41.2925V47.5411Z" fill="#3E4347"/>
    <path d="M39.4245 23.3503C39.1443 25.7787 37.1829 27.8335 35.2215 27.8335H26.0682C24.0133 27.8335 22.1453 25.8721 21.8651 23.3503L20.1839 9.71371C19.9037 7.28528 21.3047 5.23046 23.2661 5.23046H37.9301C39.9849 5.23046 41.3859 7.28528 41.0123 9.71371L39.4245 23.3503Z" fill="#428BC1"/>
    <path d="M22.2385 55.0132C22.0517 54.5462 21.4913 54.0792 21.0243 54.0792H13.5523C12.9918 54.0792 12.5248 54.4528 12.338 55.0132L10.937 58.8426C10.7502 59.3096 11.0304 59.7766 11.5908 59.7766H22.799C23.3594 59.7766 23.6396 59.403 23.4528 58.8426L22.2385 55.0132Z" fill="#94989B"/>
    <path d="M50.3522 58.8426L49.0446 55.0132C48.8578 54.5462 48.2974 54.0792 47.8304 54.0792H40.3583C39.7979 54.0792 39.3309 54.4528 39.1441 55.0132L37.8364 58.8426C37.6496 59.3096 37.9298 59.7766 38.4902 59.7766H49.6984C50.1654 59.7766 50.4456 59.403 50.3522 58.8426Z" fill="#94989B"/>
    <path d="M43.9076 5.60406C43.9076 7.65888 42.3198 9.3401 40.3584 9.3401H20.8376C18.8761 9.3401 17.2883 7.65888 17.2883 5.60406V3.73604C17.2883 1.68122 18.8761 0 20.8376 0H40.3584C42.3198 0 43.9076 1.68122 43.9076 3.73604V5.60406Z" fill="#29ABE2"/>
    <path d="M15.2336 27.2731L14.9534 25.3117C14.7666 24.2843 13.9259 23.4437 12.9919 23.4437H10.4701C9.5361 23.4437 8.69549 24.2843 8.50869 25.3117L8.22848 27.2731C8.04168 28.3005 8.69549 29.1411 9.6295 29.1411H13.8325C14.7666 29.1411 15.4204 28.3005 15.2336 27.2731Z" fill="#29ABE2"/>
    <path d="M52.8742 27.2731L52.594 25.3117C52.4072 24.2843 51.5666 23.4437 50.6326 23.4437H48.1107C47.1767 23.4437 46.3361 24.2843 46.1493 25.3117L45.8691 27.2731C45.6823 28.3005 46.3361 29.1411 47.2701 29.1411H51.4732C52.4072 29.1411 52.9676 28.3005 52.8742 27.2731Z" fill="#29ABE2"/>
    <path d="M48.8579 33.6244H12.4315C9.53604 33.6244 7.76142 36.4264 8.32183 39.8822L8.69543 42.3107C9.25584 45.7665 12.1513 48.5685 14.9533 48.5685H46.1492C49.0447 48.5685 51.8467 45.7665 52.4071 42.3107L52.8741 39.8822C53.5279 36.5198 51.6599 33.6244 48.8579 33.6244Z" fill="#29ABE2"/>
    </g>
    <defs>
    <linearGradient id="paint0_linear" x1="29.8883" y1="0" x2="29.8883" y2="59.7766" gradientUnits="userSpaceOnUse">
    <stop stop-color="white"/>
    <stop offset="1" stop-color="white" stop-opacity="0"/>
    </linearGradient>
    <clipPath id="clip0">
    <rect width="59.7766" height="59.7766" fill="white" transform="translate(0.756348)"/>
    </clipPath>
    </defs>
</svg>
