<svg width="61" height="60" viewBox="0 0 61 60" fill="none" xmlns="http://www.w3.org/2000/svg">
<g clip-path="url(#clip0)">
<rect width="59.7766" height="59.7766" transform="translate(0.837646 0.111679)" fill="url(#paint0_linear)"/>
<rect width="59.7766" height="59.7766" transform="translate(0.837646 0.111679)" fill="url(#paint1_linear)"/>
<path d="M51.7413 30C51.9281 32.0548 50.527 33.7361 48.5656 33.7361H12.8864C10.925 33.7361 9.52399 32.0548 9.71079 30L11.6722 9.26499C11.859 7.21016 13.6336 5.52895 15.5951 5.52895H45.857C47.8184 5.52895 49.593 7.21016 49.7798 9.26499L51.7413 30Z" fill="#B4D7EE"/>
<path d="M9.15039 28.599H14.7544V36.0711H9.15039V28.599Z" fill="#3E4347"/>
<path d="M46.6975 28.599H52.3016V36.0711H46.6975V28.599Z" fill="#3E4347"/>
<path d="M14.4744 47.6528H20.0784V57.0863H14.4744V47.6528Z" fill="#3E4347"/>
<path d="M41.3738 47.6528H46.9778V57.0863H41.3738V47.6528Z" fill="#3E4347"/>
<path d="M39.5058 23.4619C39.2256 25.8904 37.2642 27.9452 35.3028 27.9452H26.1495C24.0946 27.9452 22.2266 25.9838 21.9464 23.4619L20.2652 9.82538C19.985 7.39695 21.386 5.34213 23.3474 5.34213H38.0114C40.0662 5.34213 41.4672 7.39695 41.0936 9.82538L39.5058 23.4619Z" fill="#428BC1"/>
<path d="M22.3198 55.1249C22.133 54.6579 21.5726 54.1909 21.1056 54.1909H13.6336C13.0731 54.1909 12.6061 54.5645 12.4193 55.1249L11.0183 58.9543C10.8315 59.4213 11.1117 59.8883 11.6721 59.8883H22.8803C23.4407 59.8883 23.7209 59.5147 23.5341 58.9543L22.3198 55.1249Z" fill="#94989B"/>
<path d="M50.4335 58.9543L49.1259 55.1249C48.9391 54.6579 48.3787 54.1909 47.9116 54.1909H40.4396C39.8792 54.1909 39.4122 54.5645 39.2254 55.1249L37.9177 58.9543C37.7309 59.4213 38.0111 59.8883 38.5715 59.8883H49.7797C50.2467 59.8883 50.5269 59.5147 50.4335 58.9543Z" fill="#94989B"/>
<path d="M43.9889 5.71574C43.9889 7.77056 42.4011 9.45178 40.4397 9.45178H20.9189C18.9574 9.45178 17.3696 7.77056 17.3696 5.71574V3.84772C17.3696 1.7929 18.9574 0.111679 20.9189 0.111679H40.4397C42.4011 0.111679 43.9889 1.7929 43.9889 3.84772V5.71574Z" fill="#29ABE2"/>
<path d="M15.3149 27.3848L15.0347 25.4233C14.8479 24.3959 14.0072 23.5553 13.0732 23.5553H10.5514C9.61739 23.5553 8.77679 24.3959 8.58998 25.4233L8.30978 27.3848C8.12298 28.4122 8.77679 29.2528 9.7108 29.2528H13.9138C14.8479 29.2528 15.5017 28.4122 15.3149 27.3848Z" fill="#29ABE2"/>
<path d="M52.9555 27.3848L52.6753 25.4233C52.4885 24.3959 51.6479 23.5553 50.7139 23.5553H48.192C47.258 23.5553 46.4174 24.3959 46.2306 25.4233L45.9504 27.3848C45.7636 28.4122 46.4174 29.2528 47.3514 29.2528H51.5545C52.4885 29.2528 53.0489 28.4122 52.9555 27.3848Z" fill="#29ABE2"/>
<path d="M48.9392 33.7361H12.5128C9.61734 33.7361 7.84272 36.5381 8.40312 39.9939L8.77673 42.4223C9.33713 45.8782 12.2326 48.6802 15.0346 48.6802H46.2305C49.126 48.6802 51.928 45.8782 52.4884 42.4223L52.9554 39.9939C53.6092 36.6315 51.7412 33.7361 48.9392 33.7361Z" fill="#29ABE2"/>
</g>
<defs>
<linearGradient id="paint0_linear" x1="29.7473" y1="-10.6148" x2="29.7473" y2="-52.2752" gradientUnits="userSpaceOnUse">
<stop stop-color="#FFAC33"/>
<stop offset="1" stop-color="white" stop-opacity="0"/>
</linearGradient>
<linearGradient id="paint1_linear" x1="29.8883" y1="0" x2="29.8883" y2="59.7766" gradientUnits="userSpaceOnUse">
<stop stop-color="white"/>
<stop offset="1" stop-color="white" stop-opacity="0"/>
</linearGradient>
<clipPath id="clip0">
<rect width="59.7766" height="59.7766" fill="white" transform="translate(0.837646 0.111679)"/>
</clipPath>
</defs>
</svg>
