<svg width="134" height="134" viewBox="0 0 134 134" fill="none" xmlns="http://www.w3.org/2000/svg">
<path d="M5.36 0H128.64C130.062 0 131.425 0.564713 132.43 1.56991C133.435 2.5751 134 3.93844 134 5.36V128.64C134 130.062 133.435 131.425 132.43 132.43C131.425 133.435 130.062 134 128.64 134H5.36C3.93844 134 2.5751 133.435 1.56991 132.43C0.564713 131.425 0 130.062 0 128.64V5.36C0 3.93844 0.564713 2.5751 1.56991 1.56991C2.5751 0.564713 3.93844 0 5.36 0V0Z" fill="#EBEDEE"/>
<path d="M13.3999 26.8H120.6V120.6H13.3999V26.8Z" fill="white"/>
<path d="M17.4199 9.38C18.4861 9.38 19.5086 9.80354 20.2625 10.5574C21.0164 11.3113 21.4399 12.3338 21.4399 13.4C21.4399 14.4662 21.0164 15.4887 20.2625 16.2426C19.5086 16.9965 18.4861 17.42 17.4199 17.42C16.3537 17.42 15.3312 16.9965 14.5773 16.2426C13.8234 15.4887 13.3999 14.4662 13.3999 13.4C13.3999 12.3338 13.8234 11.3113 14.5773 10.5574C15.3312 9.80354 16.3537 9.38 17.4199 9.38Z" fill="#E74C3C"/>
<path d="M30.8198 9.38C31.886 9.38 32.9085 9.80354 33.6624 10.5574C34.4163 11.3113 34.8398 12.3338 34.8398 13.4C34.8398 14.4662 34.4163 15.4887 33.6624 16.2426C32.9085 16.9965 31.886 17.42 30.8198 17.42C29.7536 17.42 28.7311 16.9965 27.9772 16.2426C27.2233 15.4887 26.7998 14.4662 26.7998 13.4C26.7998 12.3338 27.2233 11.3113 27.9772 10.5574C28.7311 9.80354 29.7536 9.38 30.8198 9.38Z" fill="#F39C12"/>
<path d="M44.2202 9.38C45.2864 9.38 46.3089 9.80354 47.0628 10.5574C47.8167 11.3113 48.2402 12.3338 48.2402 13.4C48.2402 14.4662 47.8167 15.4887 47.0628 16.2426C46.3089 16.9965 45.2864 17.42 44.2202 17.42C43.154 17.42 42.1315 16.9965 41.3776 16.2426C40.6237 15.4887 40.2002 14.4662 40.2002 13.4C40.2002 12.3338 40.6237 11.3113 41.3776 10.5574C42.1315 9.80354 43.154 9.38 44.2202 9.38Z" fill="#17A085"/>
<path d="M60.2998 9.38H120.6V17.42H60.2998V9.38Z" fill="white"/>
<path d="M26.7998 60.3V67H60.2998V60.3H26.7998ZM26.7998 80.4H60.2998V73.7H26.7998V80.4ZM26.7998 93.8H60.2998V87.1H26.7998V93.8ZM26.7998 107.2H60.2998V100.5H26.7998V107.2Z" fill="#BDC3C7"/>
<path d="M26.7998 40.2H107.2V53.6H26.7998V40.2Z" fill="#FF8906"/>
<path d="M67 60.3V80.4H107.2V60.3H67ZM67 107.2H107.2V87.1H67V107.2Z" fill="#BDC3C7"/>
</svg>
